<?xml version="1.0" encoding="UTF-8" standalone="no"?>
<svg
   xmlns:dc="http://purl.org/dc/elements/1.1/"
   xmlns:cc="http://creativecommons.org/ns#"
   xmlns:rdf="http://www.w3.org/1999/02/22-rdf-syntax-ns#"
   xmlns:svg="http://www.w3.org/2000/svg"
   xmlns="http://www.w3.org/2000/svg"
   xmlns:sodipodi="http://sodipodi.sourceforge.net/DTD/sodipodi-0.dtd"
   xmlns:inkscape="http://www.inkscape.org/namespaces/inkscape"
   inkscape:version="1.0 (4035a4fb49, 2020-05-01)"
   sodipodi:docname="logotip.svg"
   viewBox="0 0 1000 1000"
   height="1000"
   width="1000"
   id="svg4528"
   version="1.1">
  <metadata
     id="metadata4534">
    <rdf:RDF>
      <cc:Work
         rdf:about="">
        <dc:format>image/svg+xml</dc:format>
        <dc:type
           rdf:resource="http://purl.org/dc/dcmitype/StillImage" />
        <dc:title />
      </cc:Work>
    </rdf:RDF>
  </metadata>
  <defs
     id="defs4532">
    <clipPath
       clipPathUnits="userSpaceOnUse"
       id="clipPath2462">
      <rect
         style="fill:none;fill-rule:evenodd;stroke:#ffffff;stroke-width:0.213;paint-order:fill markers stroke"
         id="rect2464"
         width="521.05621"
         height="558.42651"
         x="240.73882"
         y="189.10341" />
    </clipPath>
  </defs>
  <sodipodi:namedview
     inkscape:pagecheckerboard="false"
     inkscape:current-layer="g4536"
     inkscape:window-maximized="1"
     inkscape:window-y="-9"
     inkscape:window-x="-9"
     inkscape:cy="387.82047"
     inkscape:cx="351.93845"
     inkscape:zoom="0.83"
     showgrid="false"
     id="namedview4530"
     inkscape:window-height="1001"
     inkscape:window-width="1920"
     inkscape:pageshadow="2"
     inkscape:pageopacity="0"
     guidetolerance="10"
     gridtolerance="10"
     objecttolerance="10"
     borderopacity="1"
     bordercolor="#666666"
     pagecolor="#ffffff"
     inkscape:document-rotation="0" />
  <g
     id="g4536"
     inkscape:label="Image"
     inkscape:groupmode="layer">
    <path
       transform="matrix(0.9384784,0,0,0.44589573,-224.9484,-81.963979)"
       id="path6697"
       d="m 708.79523,745.19625 c -3.29214,-2.5896 -3.66836,-3.60801 -3.04628,-8.246 0.87516,-6.52476 7.51337,-13.74124 17.35466,-18.86642 3.79302,-1.97535 5.83278,-3.26591 4.53282,-2.86792 C 724.48611,716.18039 720,711.54743 720,707.32949 c 0,-3.19198 -0.20979,-3.10497 -4.82181,2 -3.96499,4.38876 -5.69459,5.33718 -9.73334,5.33718 -9.22064,0 -9.96585,-3.26256 -4.11152,-18 C 705.17755,686.98943 706.65687,676 704.11535,676 c -2.8416,0 -9.66902,11.99729 -13.58595,23.87355 -2.32063,7.03621 -4.81256,13.54312 -5.53763,14.45978 C 684.26672,715.25 681.36827,716 678.55079,716 h -5.1227 l 2.71302,-6.33333 2.713,-6.33334 -6.0713,6.33334 c -6.88076,7.17776 -10.73888,8.01838 -13.09253,2.8527 -1.67484,-3.67586 -1.78769,-3.25856 7.35263,-27.18604 3.16128,-8.27554 3.52836,-8.68534 8.13389,-9.08049 2.65276,-0.2276 4.8232,-0.16012 4.8232,0.14996 0,0.31007 -1.7836,4.88905 -3.96357,10.17552 -2.17996,5.28647 -4.5316,11.66899 -5.22586,14.18339 -1.88889,6.841 1.58938,5.97252 5.96188,-1.4886 1.95335,-3.33314 3.90079,-5.71098 4.32767,-5.2841 0.88273,0.88272 5.40061,-9.6086 5.44992,-12.65568 0.0209,-1.291 -1.13437,-0.67381 -3.25884,1.74102 -4.93587,5.61048 -3.89827,1.17654 1.42148,-6.07435 5.72808,-7.80745 9.44541,-8.40019 10.70119,-1.70632 l 0.86802,4.62701 4.19239,-3.0965 c 5.93379,-4.38271 8.15696,-4.90035 11.37265,-2.648 3.97143,2.78169 3.59438,9.62688 -1.19989,21.78341 -2.21129,5.60704 -3.42359,10.46385 -2.77399,11.11345 1.37106,1.37106 7.87862,-1.75377 10.97475,-5.26988 1.19616,-1.35841 3.40161,-4.9114 4.90101,-7.89553 3.55112,-7.06752 12.70299,-18.60189 16.98639,-21.40849 2.77953,-1.82122 3.98748,-1.93124 6.85559,-0.62446 2.42708,1.10586 3.90472,1.16314 4.87872,0.18914 0.76844,-0.76844 2.81758,-1.39716 4.55368,-1.39716 3.97957,0 3.75553,0.84944 -5.77859,21.90996 -3.96135,8.75048 -7.01965,16.09276 -6.79623,16.3162 0.69632,0.6963 11.55163,-7.72479 11.55163,-8.96127 0,-0.64408 1.30389,-1.86889 2.89753,-2.72177 l 2.89752,-1.55072 -2.99285,3.80481 c -1.64608,2.09264 -6.21317,6.21935 -10.14911,9.17047 -5.73485,4.29992 -8.21717,7.48429 -12.49765,16.03232 -5.66708,11.31702 -14.54416,21.26601 -20.21315,22.65388 -2.39409,0.58612 -4.49529,-0.0384 -7.14706,-2.1243 z m 9.45449,-3.52958 c 3.78005,-4.01079 13.20156,-22.65984 12.0364,-23.825 -1.9304,-1.9304 -16.14105,8.72105 -18.99292,14.23594 -2.02933,3.92428 -2.62581,10.812 -1.07097,12.36683 1.79169,1.79171 4.65454,0.80107 8.02749,-2.77777 z m 25.06556,-51.83822 c 6.98971,-14.08269 6.78819,-18.76146 -0.45288,-10.51434 -6.95099,7.91673 -13.48213,22.8591 -11.43749,26.1674 1.53584,2.48504 5.43654,-2.65004 11.89037,-15.65306 z M 300.58707,728.33333 C 303.05433,722.65 308.77429,709.9 313.29811,700 c 4.5238,-9.9 8.54657,-18.75 8.93948,-19.66667 1.74753,-4.07702 -2.69102,-1.10134 -6.57379,4.40718 -4.91679,6.97552 -6.41771,5.93781 -2.50493,-1.73186 C 316.18251,677.08181 325.63877,668 328.78632,668 c 1.1616,0 2.77691,1.76159 3.5896,3.91465 1.26549,3.35268 2.00825,3.80851 5.17412,3.17534 8.75181,-1.75036 7.96359,14.02885 -1.42653,28.5572 -5.67743,8.78408 -12.26431,13.08486 -16.53756,10.79788 -3.23372,-1.73063 -3.61976,-1.25459 -9.33227,11.5082 -4.52329,10.1059 -6.6876,12.40694 -11.86977,12.61968 -1.95392,0.0803 -1.63654,-1.39487 2.20316,-10.23962 z m 26.5983,-24.86504 c 2.6279,-3.95909 5.38624,-8.79816 6.12966,-10.75346 1.73472,-4.56268 1.75396,-14.04816 0.0285,-14.04816 -1.33829,0 -12.80219,23.37896 -14.20544,28.96997 -1.41493,5.63755 3.08603,3.30613 8.04731,-4.16835 z m -68.5187,9.6235 c -4.85163,-2.50004 -6.33431,-4.14791 -7.74667,-8.60982 -1.48609,-4.69488 -1.446,-6.23762 0.26884,-10.34181 3.322,-7.95065 12.54376,-9.28409 14.81071,-2.14157 1.33357,4.20169 -0.5239,7.91885 -4.42175,8.84882 -4.07435,0.9721 -6.91113,2.9053 -6.91113,4.70979 0,0.67687 1.47273,2.7034 3.27273,4.5034 5.85719,5.8572 16.10568,3.77048 23.06323,-4.69595 3.62634,-4.41278 11.28926,-21.34748 10.54148,-23.29618 -0.43656,-1.13766 -1.86258,-2.07071 -3.16894,-2.07346 -7.42905,-0.0156 -16.27845,-11.27421 -16.34589,-20.79605 -0.0692,-9.77623 5.98796,-19.82136 15.64535,-25.94588 6.87605,-4.36067 18.89013,-7.27427 24.1011,-5.84491 3.06875,0.84176 2.3667,1.22548 -5.10906,2.79243 -16.41983,3.44169 -26.81347,14.28647 -27.74728,28.95168 -0.67867,10.65837 1.77674,15.99059 8.36469,18.1648 5.49219,1.81259 6.78376,1.25033 7.96816,-3.46868 1.49821,-5.96935 11.5584,-25.32889 16.61148,-31.96669 14.17051,-18.61455 28.15445,-20.04742 28.12377,-2.88171 -0.009,5.28289 -0.96866,8.66703 -3.9104,13.79587 -4.23305,7.38025 -14.68049,17.4992 -22.74961,22.03429 -4.01895,2.25879 -5.83148,4.63033 -8.7034,11.38768 -6.64587,15.63712 -20.61168,27.83735 -33.48748,29.25392 -5.10839,0.56201 -7.73259,0.0612 -12.46993,-2.37997 z m 62.60812,-48.75846 c 12.41402,-12.4155 17.71233,-23.80993 14.725,-31.66724 -2.62184,-6.89593 -10.44323,-2.28037 -16.54691,9.76467 -2.65912,5.24752 -10.11955,27.64828 -10.11955,30.38507 0,2.21189 4.30842,-0.84855 11.94146,-8.4825 z m 21.99188,49.40952 c -1.80292,-1.80292 -2.12375,-3.91894 -1.59428,-10.5151 0.80977,-10.088 5.74018,-19.7843 13.87093,-27.27895 9.90703,-9.13199 18.14059,-6.00949 15.88317,6.02353 -1.07644,5.73795 -9.54708,14.84971 -15.05924,16.19906 -4.46296,1.09249 -5.65326,2.66317 -5.68017,7.49528 -0.0365,6.57138 6.52615,3.71752 14.00765,-6.09138 6.41423,-8.40961 7.45708,-7.10218 1.61703,2.0273 -8.2986,12.97278 -17.41173,17.77362 -23.04509,12.14026 z m 19.29105,-24.03225 c 3.72924,-4.5242 6.69671,-12.90063 5.12651,-14.47083 -2.36131,-2.3613 -10.65703,9.30444 -13.65914,19.208 -0.84964,2.80282 -0.67512,2.97048 1.74423,1.67568 1.47859,-0.7913 4.53337,-3.67709 6.7884,-6.41285 z M 424.26667,714.4 c -2.17747,-2.17747 -1.93676,-11.6456 0.4,-15.73333 2.24233,-3.92255 2.52264,-5.81372 0.69422,-4.6837 -0.71818,0.44386 -2.41637,0.21264 -3.77376,-0.51381 -2.17574,-1.16441 -2.92892,-0.19053 -6.36088,8.22489 -3.39674,8.32906 -4.44813,9.70456 -8.24905,10.79192 -2.39588,0.68542 -4.70832,0.89402 -5.13877,0.46358 -0.43044,-0.43046 3.21508,-10.27019 8.10116,-21.8661 4.88608,-11.59589 11.669,-27.68345 15.07316,-35.75012 3.40417,-8.06666 6.8189,-15.10748 7.58832,-15.64625 0.76941,-0.53877 3.11312,-0.98877 5.20825,-1 3.08701,-0.0165 3.63792,0.42203 2.90541,2.31292 -0.49713,1.28333 -3.03584,8.03333 -5.64156,15 -2.60573,6.96667 -6.46317,16.09956 -8.57209,20.29531 -5.47591,10.89442 -4.76619,11.92665 2.6688,3.88156 5.70513,-6.1733 7.05212,-6.9841 10.97593,-6.60687 3.52215,0.33861 4.75183,1.22855 5.7861,4.18743 1.65208,4.72642 -1.3284,10.71328 -5.64314,11.3353 -3.90597,0.56311 -4.01952,-3.9975 -0.1884,-7.56673 1.52187,-1.41784 2.18911,-2.93507 1.48275,-3.37161 -0.70635,-0.43656 -3.43813,1.83476 -6.07063,5.04737 -4.7635,5.81324 -4.77593,5.86199 -2.6026,10.21852 1.74235,3.49264 1.90854,5.40848 0.82216,9.47857 -1.25457,4.70028 -1.1461,5.10115 1.38023,5.10115 1.50799,0 4.42464,-1.61225 6.48143,-3.58279 6.02013,-5.76765 4.29278,-1.04134 -2.03182,5.55938 -5.98969,6.25118 -11.79,7.92864 -15.29522,4.42341 z m 81.58804,-6.73333 c 1.74081,-4.58334 4.80981,-12.40919 6.81998,-17.39078 2.01018,-4.98158 3.3115,-9.40082 2.8918,-9.8205 -0.41969,-0.4197 -2.32573,0.95616 -4.23566,3.05744 l -3.47259,3.8205 2.02247,-4.17349 c 5.07408,-10.47071 14.09185,-16.52509 14.1397,-9.49317 0.0332,4.88 1.87739,6.86633 4.00018,4.30853 1.91822,-2.31133 8.3472,-5.9752 10.48462,-5.9752 2.57051,0 5.49479,4.25981 5.49479,8.00428 0,2.09759 -1.82129,8.75344 -4.04733,14.79076 -4.46718,12.11564 -3.95043,14.65127 2.32457,11.40633 4.7982,-2.48124 6.11949,-4.03246 10.51199,-12.34132 8.66317,-16.38726 19.01345,-25.62344 24.72034,-22.05942 2.90314,1.81304 2.00191,3.59646 9.78127,-19.35587 3.80249,-11.21895 5.69368,-15.05787 7.67297,-15.57547 4.52044,-1.18212 6.66419,0.44056 5.69588,4.31143 -1.87722,7.50441 -10.65522,29.62669 -18.1363,45.70709 -4.3212,9.2883 -7.85672,17.2594 -7.85672,17.71358 0,2.321 5.74088,-2.6989 7.63928,-6.67988 1.20337,-2.5235 2.67682,-4.58818 3.27433,-4.58818 3.12263,0 -1.05661,8.60351 -7.81085,16.07966 -5.28038,5.84473 -10.14402,6.86978 -12.41974,2.61757 -1.40536,-2.62592 -1.421,-2.62592 -4.04692,0 -5.13648,5.13648 -11.96944,2.65128 -11.96944,-4.35337 v -3.78947 l -5.12688,5.38947 c -4.05984,4.26778 -6.08561,5.38948 -9.73333,5.38948 -8.90937,0 -9.70152,-3.84327 -3.84745,-18.66667 3.85014,-9.74916 5.28769,-20 2.80473,-20 -3.22704,0 -9.47825,10.68081 -14.02445,23.96213 -5.14328,15.02567 -5.95448,15.97231 -13.72783,16.01967 l -2.98853,0.0181 3.16512,-8.33333 z M 570.13995,694 c 7.06234,-12.96816 8.83198,-17.65396 7.07685,-18.73869 -3.21899,-1.98944 -14.83725,15.63829 -16.61115,25.2031 -1.61544,8.71044 2.95942,5.60862 9.5343,-6.46441 z M 604,713.6646 c -5.79356,-2.89421 -9.68953,-10.21693 -8.52737,-16.02772 1.77877,-8.89389 10.42064,-12.75835 14.5245,-6.49504 2.90595,4.43504 0.9409,8.87032 -4.7475,10.71547 -5.4695,1.77412 -6.41707,4.95118 -2.55096,8.553 9.27709,8.64293 21.66712,1.83102 30.17916,-16.59219 2.45053,-5.30384 4.4555,-10.18769 4.4555,-10.85301 0,-0.66532 -2.34434,-1.91206 -5.20968,-2.77054 -17.1504,-5.13838 -19.6823,-29.70956 -4.40849,-42.78258 C 635.04721,631.13641 643.21895,628 652.23752,628 c 8.45024,0 8.28352,2.14921 -0.23019,2.96727 -17.66734,1.69761 -32.30001,21.09093 -27.99014,37.09657 1.61306,5.99045 7.1565,10.89847 11.6707,10.33292 2.51528,-0.31511 3.90215,-2.18373 6.73955,-9.08061 C 653.27284,642.95412 665.85549,628 677.19152,628 c 7.87827,0 10.64275,11.02969 5.56655,22.20939 -2.47171,5.44361 -2.47118,5.55461 0.0293,6.2085 3.29368,0.86132 3.64575,9.54146 0.43693,10.77279 -3.96653,1.52211 -5.8403,0.80868 -6.68178,-2.54404 l -0.84163,-3.35335 -5.23859,4.73274 c -2.88122,2.60301 -8.21392,6.56349 -11.85042,8.80106 -3.63652,2.23756 -6.61186,4.82102 -6.61186,5.74098 0,4.72401 -8.7749,18.5288 -16.07194,25.28456 -10.95206,10.13966 -21.9043,12.8194 -31.92806,7.81197 z m 61.91247,-48.34773 c 4.59157,-4.40906 9.94138,-10.94347 11.88848,-14.52091 3.44886,-6.33672 4.92182,-15.46911 2.99726,-18.58311 -1.06414,-1.72184 -6.03164,-2.04026 -8.20202,-0.52577 -3.94434,2.75235 -8.84983,11.61085 -12.36867,22.33568 -7.45227,22.71332 -7.04649,23.51947 5.68495,11.29411 z M 370.0756,711.70332 c -3.15897,-4.51008 -2.56779,-7.86929 3.45076,-19.60773 8.24625,-16.08331 19.51372,-25.18884 24.72315,-19.97942 1.0438,1.0438 1.70026,1.0438 2.34536,0 0.49272,-0.79722 2.63381,-1.4495 4.75801,-1.4495 h 3.86216 l -1.77757,5.03817 c -0.97767,2.771 -4.25104,9.95768 -7.27419,15.97041 -3.02313,6.01272 -5.49661,11.65014 -5.49661,12.52758 0,2.29588 6.54196,-4.1453 9.00828,-8.8695 2.8354,-5.43114 3.73125,-1.96145 0.98681,3.82202 -5.72033,12.0547 -17.80765,19.73665 -20.03128,12.73064 l -0.88256,-2.78068 -2.95989,2.78068 c -3.84148,3.60888 -8.10767,3.53613 -10.71243,-0.18267 z M 384.31321,703 c 2.82363,-3.19853 13.02012,-23.79787 13.02012,-26.30373 0,-1.11628 -0.55632,-2.0296 -1.23626,-2.0296 -2.03,0 -8.85158,9.03489 -12.59723,16.68452 -5.05661,10.32696 -4.54083,17.71389 0.81337,11.64881 z m 88.00752,9.01809 c -0.90973,-1.45672 -1.65406,-4.36088 -1.65406,-6.4537 0,-8.88746 16.05954,-32.52459 23.33921,-34.35167 1.69349,-0.42504 4.33496,-0.10067 5.86993,0.72081 1.85079,0.99052 2.79086,1.02871 2.79086,0.11334 0,-0.75914 1.8,-1.38024 4,-1.38024 2.31661,0 4,0.70322 4,1.67097 0,0.91904 -3,7.96711 -6.66667,15.66236 -7.37853,15.48536 -8.33687,19.25815 -3.86349,15.2098 1.54174,-1.39527 3.76156,-4.33825 4.93293,-6.53999 1.73451,-3.26022 2.22553,-3.55286 2.64583,-1.57685 0.57622,2.70909 -4.90563,11.66619 -10.06784,16.45035 -4.21812,3.90922 -9.63056,4.14253 -10.59443,0.45669 -0.38355,-1.46667 -1.08304,-2.66667 -1.55444,-2.66667 -0.47141,0 -1.60652,1.2 -2.52247,2.66667 -2.19868,3.52065 -8.46133,3.53128 -10.65536,0.0181 z m 18.69003,-16.11825 c 5.82595,-9.96015 9.75213,-19.58139 8.50116,-20.83236 -3.01104,-3.01104 -16.84525,18.82601 -16.84525,26.58993 0,5.83048 2.62572,4.01868 8.34409,-5.75757 z M 262.59437,662.8906 C 248.46171,653.88781 240.73881,640.85212 240.73881,626 c 0,-20.60677 8.96155,-30.62477 48.89951,-54.66417 30.17572,-18.16334 41.29768,-28.6176 50.95639,-47.8973 5.03174,-10.04382 9.80357,-26.41336 7.88833,-27.06058 -4.2288,-1.42906 -10.02985,-6.25654 -11.92709,-9.9254 -1.23211,-2.38263 -2.54339,-8.10916 -2.91395,-12.72563 -0.56959,-7.0958 -1.06237,-8.39359 -3.18716,-8.39359 -4.57301,0 -20.37224,-8.04488 -25.37244,-12.9195 -7.65624,-7.46396 -10.7254,-16.06006 -11.4682,-32.12014 -1.39997,-30.26857 8.23288,-64.32801 21.38603,-75.61578 3.11654,-2.67455 7.30298,-5.19352 9.3032,-5.59772 4.5743,-0.92435 4.95628,-1.46231 10.23401,-14.41352 6.51117,-15.97799 18.0354,-37.19818 26.77964,-49.31082 7.86763,-10.89834 25.26241,-30.55413 26.20519,-29.61137 0.28174,0.28176 -0.90996,3.75451 -2.64826,7.71723 -1.73828,3.96273 -3.93864,10.49144 -4.88968,14.50825 -1.13408,4.78989 -3.98253,10.40141 -8.27688,16.3056 -6.37494,8.76476 -26.37412,46.72264 -26.37412,50.05736 0,0.95755 1.6759,1.66708 3.93762,1.66708 3.41394,0 4.30918,-0.84004 6.73178,-6.31672 6.22315,-14.06845 17.47111,-19.69544 28.39682,-14.206 10.5774,5.31445 11.07257,10.98276 4.32684,49.53031 -7.59002,43.37217 -11.51096,71.89129 -12.69338,92.32574 -0.73973,12.78388 -1.88789,21.25468 -3.38928,25.00496 -2.44216,6.1002 -8.2725,11.84975 -13.2944,13.11018 -2.5967,0.65172 -3.45697,2.30941 -5.19693,10.01417 -6.19613,27.43732 -23.01663,48.25275 -53.71849,66.47683 -38.8988,23.08962 -43.62974,26.77412 -49.35904,38.44128 -7.73751,15.75665 -4.19038,31.2319 11.00848,48.02718 4.11054,4.54231 7.24085,8.25874 6.95622,8.25874 -0.28461,0 -3.18496,-1.69923 -6.4452,-3.77607 z m 218.26546,-42.53131 c 1.65856,-9.36428 3.0436,-17.10384 3.07786,-17.19904 0.0343,-0.0952 3.60364,-0.42924 7.93195,-0.74232 15.74261,-1.13872 22.85567,-11.23073 23.86189,-33.85533 0.59918,-13.47229 0.65255,-13.65868 4.10444,-14.33399 4.71728,-0.92284 10.18612,1.87259 10.07582,5.15032 -0.0485,1.44159 -1.79467,17.65703 -3.88034,36.0343 l -3.79212,33.41324 -13.453,-0.0799 c -12.36854,-0.0735 -14.09656,0.24255 -21.43649,3.92011 -4.39092,2.2 -8.32596,4.16168 -8.74453,4.35929 -0.41856,0.1976 0.59597,-7.3024 2.25452,-16.66667 z m -0.19814,-22.89156 c -8.92172,-5.8969 -18.26173,-28.58817 -25.32054,-61.51552 -5.86568,-27.36172 -5.50171,-26.60366 -14.02834,-29.21656 -14.86216,-4.55434 -27.31898,-14.92512 -34.17253,-28.44996 -2.80289,-5.53124 -3.55056,-8.97598 -3.66419,-16.88205 l -0.14276,-9.93284 5.05519,-2.86193 c 2.78035,-1.57407 10.88035,-3.89819 18,-5.16471 7.11964,-1.26651 15.49481,-3.42583 18.61148,-4.79848 5.14568,-2.26628 5.66667,-2.93431 5.66667,-7.26596 0,-9.632 -10.65876,-9.46233 -36.33334,0.57833 -10.0079,3.91383 -13,4.63356 -13,3.12706 0,-1.0763 1.65,-3.59731 3.66667,-5.60226 2.82115,-2.80473 7.97113,-4.83717 22.33333,-8.81381 10.26667,-2.84265 19.41667,-5.72956 20.33334,-6.41535 2.82821,-2.11586 1.99586,-8.64318 -1.38462,-10.85816 -2.73889,-1.7946 -4.14605,-1.7378 -13.74485,0.55482 -12.50399,2.98649 -23.49623,7.12682 -28.63409,10.78532 -2.00646,1.42872 -4.00547,2.59766 -4.44227,2.59766 -1.81643,0 -0.61252,-6.41776 1.57532,-8.39773 4.10075,-3.71112 16.94147,-8.91441 30.46479,-12.34488 13.0234,-3.30365 15.10686,-4.53131 15.1453,-8.92405 0.0271,-3.09978 -4.66517,-7.66667 -7.8772,-7.66667 -1.41034,0 -11.32294,3.6874 -22.02798,8.19423 -10.70504,4.50682 -19.82318,7.83477 -20.26252,7.39542 -0.43935,-0.43933 -0.41806,-2.31582 0.0473,-4.16997 1.07539,-4.28468 5.24968,-6.41935 26.69351,-13.65059 9.47064,-3.19366 18.02064,-6.47168 19,-7.28448 0.97934,-0.81278 1.78064,-2.88322 1.78064,-4.60096 0,-8.0716 -14.12739,-7.50185 -32.75236,1.32088 -6.71586,3.18134 -12.62938,6.46176 -13.14116,7.28986 -1.68484,2.72608 -3.43984,1.57201 -3.43984,-2.26198 0,-2.21598 1.2729,-4.96341 3.09089,-6.67132 2.99927,-2.81766 16.87849,-8.44286 33.89615,-13.73798 8.78464,-2.73338 10.9902,-5.59338 9.0435,-11.72688 -0.7235,-2.27955 -1.96914,-2.76062 -7.1204,-2.74987 -7.0641,0.0147 -15.25741,3.44947 -28.12628,11.79085 -4.70221,3.0479 -8.79721,5.29388 -9.10002,4.99108 -0.3028,-0.30281 -0.14018,-3.28714 0.3614,-6.63186 l 0.91194,-6.0813 10.18807,-3.91753 c 5.60344,-2.15464 13.61641,-4.90931 17.80659,-6.12151 10.99709,-3.18138 13.66029,-5.69506 12.51304,-11.81048 -0.87556,-4.66717 -1.16978,-4.89894 -6.21846,-4.89894 -5.93873,0 -19.25801,4.99644 -27.03006,10.13973 -2.82024,1.86635 -5.3239,3.19719 -5.56366,2.95741 -0.23977,-0.23977 -0.83966,-2.04449 -1.3331,-4.01048 -0.80582,-3.21065 -0.30786,-3.87645 4.89162,-6.5402 3.18383,-1.6311 10.8085,-4.94144 16.94371,-7.35629 6.13521,-2.41484 12.28521,-5.41352 13.66667,-6.66372 3.018,-2.73125 3.30724,-8.30488 0.48713,-9.38705 -4.68508,-1.79784 -26.23473,6.50805 -38.48084,14.83169 -2.84465,1.93351 -5.99465,3.19981 -7,2.81403 -6.72628,-2.58111 5.74848,-12.02796 26.81423,-20.30579 17.16628,-6.74553 20.5092,-9.67433 18.38016,-16.10328 -1.00806,-3.044 -2.11795,-3.78428 -6.18738,-4.12691 -6.61126,-0.55662 -24.38657,8.09319 -33.89829,16.49559 -3.88485,3.43179 -7.43403,5.86896 -7.88705,5.41593 -0.45303,-0.45301 -1.08746,-5.47449 -1.40986,-11.15884 -0.45958,-8.10314 0.0149,-12.11085 2.19712,-18.55734 11.80327,-34.86826 53.40844,-65.54839 94.03446,-69.34211 18.67942,-1.74431 27.13813,5.56839 31.98682,27.65315 2.30972,10.52029 5.04556,15.91114 8.07486,15.91114 4.22722,0 4.58364,-11.40405 0.6823,-21.83132 -3.55757,-9.50846 -9.29698,-16.64046 -17.02654,-21.1578 L 498,190.68843 l 4.34787,-0.0107 c 7.24361,-0.0181 15.78786,4.90028 20.27121,11.66891 3.63612,5.48953 5.43364,10.31121 11.0092,29.53121 1.96157,6.76195 5.64596,9.96359 7.81265,6.789 2.41668,-3.54084 0.53692,-17.47817 -3.42025,-25.35932 -4.52759,-9.01716 -11.76591,-18.07824 -17.23063,-21.56967 l -4.12338,-2.63445 5.28725,0.89603 c 11.94312,2.02398 19.29549,9.37508 23.34228,23.33818 1.48709,5.13108 3.90128,13.46407 5.36487,18.51776 2.49764,8.62426 5.1491,11.91022 8.12592,10.07044 3.85585,-2.38305 -2.20218,-30.15478 -8.20052,-37.59356 -1.78923,-2.21888 -4.90314,-5.03525 -6.9198,-6.25858 -4.5661,-2.77007 -4.70464,-4.74038 -0.33334,-4.74038 7.7842,0 18.76552,16.42038 22.73792,34 1.15996,5.13334 2.54091,11.13334 3.06879,13.33334 1.23117,5.13113 4.71619,5.25708 5.29556,0.19138 0.66509,-5.81533 -3.50408,-22.62384 -7.65064,-30.84446 -3.9514,-7.8337 -3.7154,-8.98748 0.94939,-4.64159 4.35373,4.05613 6.32033,8.67317 9.63822,22.628 1.65639,6.96667 3.86038,14.35493 4.89774,16.41837 2.9809,5.92935 5.07792,3.68319 4.94865,-5.30061 -0.0891,-6.18527 -1.1402,-10.07497 -4.73839,-17.53321 C 579.86435,216.16169 578.52165,212 579.38829,212 c 1.94371,0 4.98172,3.6156 6.98,8.30705 1.042,2.44635 2.22227,3.38263 3.59842,2.85456 1.42849,-0.54816 2.61356,0.56871 3.91842,3.69295 2.9621,7.09213 6.11487,24.27248 6.11487,33.32165 v 8.28863 l -3.03796,-2.85403 c -9.62813,-9.04514 -63.80277,-17.72076 -93.19135,-14.9238 -20.15085,1.91779 -42.54765,7.86924 -46.04698,12.23595 -2.55894,3.19323 -3.08971,7.18936 -1.28306,9.66011 1.72536,2.35957 2.06679,2.34617 9.9772,-0.39139 10.71424,-3.70788 27.47072,-6.58304 48.91548,-8.39316 35.0552,-2.95896 71.68867,3.66592 84.33334,15.25104 3.62596,3.32212 4.03704,6.92729 0.66666,5.84665 -1.28333,-0.41146 -5.83562,-1.96797 -10.1162,-3.45889 -27.48837,-9.57417 -65.82633,-10.55435 -110.27093,-2.81927 -20.38968,3.54859 -26.47836,7.49254 -22.63983,14.66492 1.80576,3.3741 1.28255,3.38947 18.45662,-0.54257 38.88536,-8.90292 89.35038,-7.51303 117.94612,3.24844 7.1535,2.69209 13.18452,8.22864 11.16424,10.24892 -0.45166,0.45167 -4.72687,-0.46093 -9.50044,-2.02799 -19.39116,-6.36566 -38.11854,-8.79846 -68.03958,-8.83874 -21.93314,-0.0295 -30.45564,0.48034 -39.33333,2.35316 -22.23481,4.69062 -29.33333,8.35612 -29.33333,15.14698 0,5.75962 4.15217,6.30779 19.75629,2.60827 19.44444,-4.61 34.34992,-6.24827 56.67452,-6.22912 35.89164,0.0308 68.98913,7.31809 71.08037,15.65025 0.44499,1.77299 0.57282,3.45988 0.28406,3.74864 -0.28878,0.28876 -3.92727,-0.59738 -8.08558,-1.96921 -4.15829,-1.37184 -10.41552,-2.92237 -13.90496,-3.44565 l -6.34442,-0.9514 4.81312,6.52518 c 2.80288,3.79991 6.39606,7.00052 8.60318,7.66327 11.88978,3.5702 15.79988,5.67492 16.2389,8.74108 0.38518,2.69031 0.007,3.02605 -2.66667,2.36893 -1.71352,-0.4211 -6.21365,-1.16962 -10.00031,-1.66336 -6.69749,-0.87328 -6.94238,-0.78641 -9,3.19258 -3.41572,6.60525 -2.80046,7.65154 5.5515,9.44082 12.35006,2.64582 18.68001,5.41423 19.49364,8.52559 0.40366,1.54357 0.52565,3.01479 0.27109,3.26935 -0.25456,0.25456 -5.78076,-0.61735 -12.28045,-1.93755 -9.81344,-1.99329 -18.48824,-2.39747 -51.15095,-2.38319 -41.26333,0.018 -57.45817,1.38895 -73,6.17952 -7.78704,2.40026 -8.33333,2.82952 -8.33333,6.54807 0,6.52688 3.75052,6.99365 25.96137,3.23103 41.31715,-6.99932 75.19444,-7.15935 103.86104,-0.4906 13.94787,3.2447 16.84425,4.48617 16.84425,7.2199 0,2.57254 -8.41616,2.52406 -20,-0.1152 -5.29572,-1.20656 -19.8167,-2.29804 -37.33333,-2.80617 -30.1608,-0.87493 -44.99509,0.17168 -70,4.93877 -10.85724,2.06988 -13.89045,3.18039 -16.33333,5.97983 -1.65,1.89084 -3,4.39272 -3,5.55972 0,1.86705 1.88121,2.02192 15.66666,1.28969 C 490.95,403.10253 506.1,401.82129 516,400.71303 c 34.08587,-3.81582 81.68733,-1.83398 95.60291,3.98033 3.3866,1.41501 4.39709,2.63953 4.39709,5.32844 0,2.70457 -0.52575,3.33241 -2.33333,2.78644 -3.82756,-1.15611 -39.80595,-4.59101 -57,-5.44187 -26.93576,-1.33292 -69.67155,3.61448 -80.76203,9.34959 -4.34665,2.24775 -5.94784,6.13293 -4.01555,9.74347 2.10694,3.93684 4.52243,4.25698 15.73863,2.08598 5.70476,-1.1042 20.27228,-3.45509 32.37228,-5.22417 20.12171,-2.94191 23.76447,-3.10705 42.66667,-1.93429 17.10277,1.06113 50.8613,4.8027 51.44909,5.70228 0.0877,0.13425 -0.97204,2.78694 -2.355,5.89488 -2.28437,5.13368 -2.75824,5.49972 -5.17831,4 -3.77598,-2.34 -5.19212,0.43786 -5.27594,10.34921 -0.0372,4.4 -0.92515,9.5 -1.97318,11.33333 -1.81305,3.17162 -1.90816,2.9452 -1.96018,-4.66666 -0.0545,-7.98192 -1.61991,-15.62312 -3.94298,-19.2476 -1.03766,-1.61898 -1.56377,-1.63471 -3.41056,-0.102 -1.84849,1.53412 -2.04836,3.56721 -1.30226,13.2476 1.44204,18.71009 -3.3331,35.91401 -13.2344,47.68104 -4.56372,5.42368 -16.81672,11.60578 -28.581,14.42021 l -9.76471,2.33607 0.88349,10.16568 c 0.48594,5.59112 1.73006,16.01173 2.76472,23.1569 2.23458,15.43143 2.4346,31.37463 0.45907,36.58864 -1.94937,5.14496 -6.50839,9.75347 -9.64871,9.75347 -2.33104,0 -2.52258,-0.66831 -1.8153,-6.33333 1.75616,-14.06602 2.3037,-29.3317 1.25537,-35 l -1.10968,-6 h -8.62977 -8.62976 v 18 c 0,16.16881 -0.31684,18.64336 -3.11444,24.32402 -4.06026,8.24458 -9.47646,12.02799 -18.09672,12.64122 -5.12338,0.36446 -7.77135,-0.16646 -10.79382,-2.16418 z m 13.1264,-10.8726 c 4.86742,-3.8287 7.07614,-11.78612 5.10114,-18.37806 -1.85102,-6.17815 -4.98354,-9.23594 -10.6156,-10.36235 -3.61016,-0.72203 -4.89464,-0.16704 -8.91252,3.85084 -4.02419,4.02419 -4.69444,5.57959 -4.69444,10.89399 0,13.92602 9.95072,21.20926 19.12142,13.99558 z m -12.40785,-6.50748 C 477.89865,573.58224 481.18539,564 486.89833,564 c 5.63044,0 8.8017,12.10949 4.33976,16.57143 -2.89644,2.89644 -8.18778,2.63677 -9.85785,-0.48378 z m 8.74237,-3.42098 c 2.02322,-3.08783 2.02322,-3.57884 0,-6.66667 -2.54217,-3.87984 -3.81658,-4.11555 -6.69404,-1.23809 -3.76262,3.76262 -1.8952,11.23809 2.80736,11.23809 0.93643,0 2.68543,-1.5 3.88668,-3.33333 z m 39.42243,-73.50042 c 11.25787,-4.06093 17.425,-7.7589 23.38277,-14.02086 11.55891,-12.1491 17.37835,-42.90024 10.24666,-54.14539 -4.58006,-7.22176 -7.10592,-1.66021 -9.30895,20.49684 -2.66109,26.76412 -6.94127,33.53309 -26.97728,42.6638 -11.80379,5.37916 -12.09047,5.59681 -9.51629,7.22477 2.45916,1.55523 0.94377,1.83148 12.17309,-2.21916 z m 28.64213,-3.25558 c 10.0127,-4.77862 17.06075,-12.4986 19.95044,-21.85243 1.1915,-3.8568 2.37118,-14.1174 2.76602,-24.05824 0.56833,-14.30848 0.3305,-17.79869 -1.36282,-20 -1.64398,-2.13716 -2.53012,-2.37415 -4.46272,-1.19347 -2.06925,1.26418 -2.5131,4.0075 -3.12802,19.33334 -0.76111,18.96918 -2.4336,24.95382 -10.06152,36.00274 -3.8343,5.55392 -13.13646,12.61651 -18.3361,13.92154 -1.9677,0.49386 -3.96386,1.52284 -4.4359,2.28662 -1.54455,2.49912 10.3176,-0.26266 19.07062,-4.4401 z m -37.92492,-5.0507 c 18.39244,-8.77852 26.5499,-21.81817 26.88806,-42.98037 0.1975,-12.35996 -1.78799,-18.54627 -5.95243,-18.54627 -2.95752,0 -3.45597,1.84436 -4.50431,16.66667 -1.86344,26.34728 -7.00334,34.06365 -27.86868,41.83833 -11.69262,4.35682 -13.57033,5.52114 -11.33836,7.03066 3.25032,2.19824 13.58008,0.37998 22.77572,-4.00902 z M 483.33333,360.07481 c 18.17276,-3.5216 42.83004,-5.52356 66,-5.35866 21.3615,0.15204 20.95798,0.37042 15.30032,-8.2808 -2.8914,-4.42131 -3.95104,-4.99143 -10.88793,-5.85814 -17.24819,-2.15502 -75.71496,3.57015 -85.546,8.37682 -5.54188,2.70957 -7.12821,7.927 -3.5102,11.54501 2.69828,2.69829 2.50811,2.70261 18.64381,-0.42423 z M 500,334.62535 c 6.96667,-0.81204 23.13661,-1.58494 35.9332,-1.71755 l 23.26655,-0.24113 4.58257,-6 4.58257,-6 -6.51577,-0.88319 c -26.03757,-3.52931 -83.49629,1.08072 -96.8298,7.76884 -4.97979,2.49787 -6.32547,8.16548 -2.64613,11.14481 2.60572,2.10998 3.4526,2.09935 13.86766,-0.17408 6.10087,-1.3317 16.79248,-3.08568 23.75915,-3.8977 z m 94.7336,-93.96964 c -1.19176,-8.24327 -3.68116,-16.15259 -4.74811,-15.08566 -0.3336,0.33362 -0.0168,2.66287 0.70398,5.17612 0.7208,2.51326 1.31053,7.07444 1.31053,10.13598 0,6.51545 1.22893,10.42225 2.788,8.86318 0.60533,-0.60533 0.58084,-4.69565 -0.0544,-9.08962 z m -22.06693,331.39201 c -3.90524,-1.63519 -8.64408,-6.48139 -10.11123,-10.34028 -2.75588,-7.24851 1.14213,-17.79999 23.78157,-64.37411 8.73351,-17.96666 20.91034,-43.16666 27.0596,-56 14.19568,-29.62593 15.40154,-31.65476 20.32847,-34.20258 5.15688,-2.66672 15.30841,-2.71044 20.38011,-0.0877 9.07745,4.69414 11.50796,12.23876 8.03992,24.95702 -1.82208,6.68205 -1.80588,7.48134 0.18245,9 3.66783,2.80141 6.72669,1.9914 7.5526,-2 5.29849,-25.60647 7.47456,-61.47498 4.89947,-80.75923 -6.08488,-45.5684 -26.37006,-82.89653 -59.85516,-110.1436 -11.8037,-9.60475 -12.57275,-10.55235 -15.76924,-19.43051 -4.7012,-13.05736 -4.94678,-14.00053 -3.64407,-13.99578 2.06171,0.008 28.95561,20.60976 38.23499,29.29016 23.30266,21.7985 40.56597,53.0098 48.09346,86.9509 6.90918,31.15307 7.58664,61.90106 2.31456,105.04979 -2.27232,18.59765 -2.26952,19.57787 0.0775,27.1188 3.00145,9.64369 3.13023,23.40065 0.309,33.0108 -1.16932,3.98309 -6.39884,15.59771 -11.62117,25.81023 -11.51502,22.5182 -19.47279,31.8883 -31.76786,37.406 -7.30821,3.27973 -9.36233,3.62694 -17.70937,2.99341 -5.19324,-0.39415 -12.09745,-1.78036 -15.34271,-3.08047 l -5.90046,-2.36381 -2.06328,3.23832 c -1.1348,1.78108 -4.259,5.48832 -6.94268,8.23832 -4.35659,4.46427 -5.57479,4.99095 -11.36959,4.91548 -3.56961,-0.0465 -7.6902,-0.58697 -9.15687,-1.20109 z"
       style="fill:#000000;stroke-width:1.33333"
       clip-path="url(#clipPath2462)" />
  </g>
  <path
     d="m 701.05254,700.97304 c 16.31088,-3.67446 32.99513,-4.99015 49.67397,-3.38528 4.7286,0.45499 9.43932,1.31872 14.00912,2.61628 1.30845,0.37152 3.25732,3.67179 3.35992,2.3155 0.2081,-2.75109 -1.96673,-5.1555 -2.9501,-7.73325 0.6101,-2.1176 1.03436,-1.46887 -0.67483,-2.22537 -10.90653,-4.82735 -14.53513,9.52065 -2.81172,11.71551 v 0 c 7.09454,1.32824 3.01002,1.22161 12.20168,-1.17115 0.0708,-3.68217 1.78552,-7.71647 0.21255,-11.0465 -1.1508,-2.43629 -4.58988,-2.97415 -7.18225,-3.7086 -5.1497,-1.45896 -10.47993,-2.31904 -15.81016,-2.80541 -17.91816,-1.63497 -35.83791,-0.17503 -53.33808,3.84364 -11.62454,2.66942 -8.32561,14.20583 3.3099,11.58463 z"
     id="path2458"
     style="fill:none;fill-rule:evenodd;stroke:#ffffff;stroke-width:0.213;paint-order:fill markers stroke" />
  <rect
     style="fill:none;fill-rule:evenodd;stroke:#ffffff;stroke-width:0.213;paint-order:fill markers stroke"
     id="rect2485"
     width="513.25299"
     height="126.50603"
     x="267.46988"
     y="619.2771"
     ry="14.4578" />
  <rect
     style="fill:none;fill-rule:evenodd;stroke:#ffffff;stroke-width:0.213;paint-order:fill markers stroke"
     id="rect2489"
     width="187.95181"
     height="98.795189"
     x="267.46988"
     y="619.2771"
     ry="14.4578" />
</svg>
